<svg xmlns="http://www.w3.org/2000/svg" viewBox="0 0 64 64" width="64" height="64">
  <!-- Black background -->
  <rect width="64" height="64" fill="#000000"/>
  
  <!-- Waveform pattern: horizontal lines with peaks in center -->
  <!-- Each line is flat on edges, peaks in center -->
  
  <!-- Top lines - flat -->
  <line x1="0" y1="8" x2="18" y2="8" stroke="#ffffff" stroke-width="0.7"/>
  <line x1="0" y1="10" x2="16" y2="10" stroke="#ffffff" stroke-width="0.7"/>
  <line x1="0" y1="12" x2="20" y2="12" stroke="#ffffff" stroke-width="0.7"/>
  <line x1="0" y1="14" x2="18" y2="14" stroke="#ffffff" stroke-width="0.7"/>
  <line x1="0" y1="16" x2="20" y2="16" stroke="#ffffff" stroke-width="0.7"/>
  
  <!-- Center section with peaks - varying heights -->
  <path d="M 18 8 L 20 4 L 22 8 L 24 2 L 26 10 L 28 6 L 30 12 L 32 4 L 34 10 L 36 6 L 38 8 L 46 8" 
        stroke="#ffffff" stroke-width="0.7" fill="none"/>
  <path d="M 16 10 L 18 6 L 20 10 L 22 4 L 24 12 L 26 8 L 28 14 L 30 6 L 32 12 L 34 8 L 36 10 L 48 10" 
        stroke="#ffffff" stroke-width="0.7" fill="none"/>
  <path d="M 20 12 L 22 8 L 24 12 L 26 6 L 28 14 L 30 10 L 32 16 L 34 8 L 36 14 L 38 10 L 40 12 L 46 12" 
        stroke="#ffffff" stroke-width="0.7" fill="none"/>
  <path d="M 18 14 L 20 10 L 22 14 L 24 8 L 26 16 L 28 12 L 30 18 L 32 10 L 34 16 L 36 12 L 38 14 L 48 14" 
        stroke="#ffffff" stroke-width="0.7" fill="none"/>
  <path d="M 20 16 L 22 12 L 24 16 L 26 10 L 28 18 L 30 14 L 32 20 L 34 12 L 36 18 L 38 14 L 40 16 L 46 16" 
        stroke="#ffffff" stroke-width="0.7" fill="none"/>
  
  <!-- Highest peaks in center -->
  <path d="M 24 4 L 26 0 L 28 6 L 30 2 L 32 8 L 34 4 L 36 10 L 38 6 L 40 4" 
        stroke="#ffffff" stroke-width="0.7" fill="none"/>
  <path d="M 26 2 L 28 0 L 30 4 L 32 0 L 34 6 L 36 2 L 38 8 L 40 4 L 42 2" 
        stroke="#ffffff" stroke-width="0.7" fill="none"/>
  <path d="M 28 0 L 30 0 L 32 2 L 34 0 L 36 4 L 38 2 L 40 6 L 42 4 L 44 2" 
        stroke="#ffffff" stroke-width="0.7" fill="none"/>
  
  <!-- More center peaks -->
  <path d="M 24 18 L 26 14 L 28 20 L 30 12 L 32 22 L 34 16 L 36 24 L 38 18 L 40 20" 
        stroke="#ffffff" stroke-width="0.7" fill="none"/>
  <path d="M 26 20 L 28 16 L 30 22 L 32 14 L 34 24 L 36 18 L 38 26 L 40 20 L 42 22" 
        stroke="#ffffff" stroke-width="0.7" fill="none"/>
  <path d="M 28 22 L 30 18 L 32 24 L 34 16 L 36 26 L 38 20 L 40 28 L 42 22 L 44 24" 
        stroke="#ffffff" stroke-width="0.7" fill="none"/>
  
  <!-- Bottom lines - flat -->
  <line x1="46" y1="16" x2="64" y2="16" stroke="#ffffff" stroke-width="0.7"/>
  <line x1="48" y1="18" x2="64" y2="18" stroke="#ffffff" stroke-width="0.7"/>
  <line x1="44" y1="20" x2="64" y2="20" stroke="#ffffff" stroke-width="0.7"/>
  <line x1="48" y1="22" x2="64" y2="22" stroke="#ffffff" stroke-width="0.7"/>
  <line x1="46" y1="24" x2="64" y2="24" stroke="#ffffff" stroke-width="0.7"/>
  
  <!-- Additional lines for density -->
  <line x1="0" y1="18" x2="18" y2="18" stroke="#ffffff" stroke-width="0.7"/>
  <line x1="0" y1="20" x2="20" y2="20" stroke="#ffffff" stroke-width="0.7"/>
  <line x1="0" y1="22" x2="22" y2="22" stroke="#ffffff" stroke-width="0.7"/>
  <line x1="0" y1="24" x2="20" y2="24" stroke="#ffffff" stroke-width="0.7"/>
  <line x1="0" y1="26" x2="18" y2="26" stroke="#ffffff" stroke-width="0.7"/>
  
  <line x1="44" y1="18" x2="64" y2="18" stroke="#ffffff" stroke-width="0.7"/>
  <line x1="42" y1="20" x2="64" y2="20" stroke="#ffffff" stroke-width="0.7"/>
  <line x1="46" y1="22" x2="64" y2="22" stroke="#ffffff" stroke-width="0.7"/>
  <line x1="44" y1="24" x2="64" y2="24" stroke="#ffffff" stroke-width="0.7"/>
  <line x1="48" y1="26" x2="64" y2="26" stroke="#ffffff" stroke-width="0.7"/>
  
  <!-- Bottom section -->
  <line x1="0" y1="28" x2="20" y2="28" stroke="#ffffff" stroke-width="0.7"/>
  <line x1="0" y1="30" x2="18" y2="30" stroke="#ffffff" stroke-width="0.7"/>
  <line x1="0" y1="32" x2="22" y2="32" stroke="#ffffff" stroke-width="0.7"/>
  <line x1="0" y1="34" x2="20" y2="34" stroke="#ffffff" stroke-width="0.7"/>
  <line x1="0" y1="36" x2="18" y2="36" stroke="#ffffff" stroke-width="0.7"/>
  
  <line x1="44" y1="28" x2="64" y2="28" stroke="#ffffff" stroke-width="0.7"/>
  <line x1="42" y1="30" x2="64" y2="30" stroke="#ffffff" stroke-width="0.7"/>
  <line x1="40" y1="32" x2="64" y2="32" stroke="#ffffff" stroke-width="0.7"/>
  <line x1="44" y1="34" x2="64" y2="34" stroke="#ffffff" stroke-width="0.7"/>
  <line x1="42" y1="36" x2="64" y2="36" stroke="#ffffff" stroke-width="0.7"/>
</svg>
